<?xml version="1.0" encoding="UTF-8" standalone="no"?>
<!-- Created with Inkscape (http://www.inkscape.org/) -->

<svg
   width="300"
   height="300"
   viewBox="0 0 300 300"
   version="1.1"
   id="svg5"
   inkscape:version="1.2.1 (9c6d41e410, 2022-07-14)"
   sodipodi:docname="logo.svg"
   inkscape:export-filename="logo.png"
   inkscape:export-xdpi="96"
   inkscape:export-ydpi="96"
   xmlns:inkscape="http://www.inkscape.org/namespaces/inkscape"
   xmlns:sodipodi="http://sodipodi.sourceforge.net/DTD/sodipodi-0.dtd"
   xmlns="http://www.w3.org/2000/svg"
   xmlns:svg="http://www.w3.org/2000/svg">
  <sodipodi:namedview
     id="namedview7"
     pagecolor="#505050"
     bordercolor="#eeeeee"
     borderopacity="1"
     inkscape:showpageshadow="0"
     inkscape:pageopacity="0"
     inkscape:pagecheckerboard="0"
     inkscape:deskcolor="#505050"
     inkscape:document-units="px"
     showgrid="false"
     showguides="true"
     inkscape:zoom="1.7615347"
     inkscape:cx="163.77765"
     inkscape:cy="205.50263"
     inkscape:window-width="1366"
     inkscape:window-height="698"
     inkscape:window-x="0"
     inkscape:window-y="38"
     inkscape:window-maximized="1"
     inkscape:current-layer="layer4" />
  <defs
     id="defs2" />
  <g
     inkscape:groupmode="layer"
     id="layer3"
     inkscape:label="Camada 4"
     style="display:inline">
    <rect
       style="fill:#ffffff;fill-opacity:1;stroke:none;stroke-width:0.0984316;stroke-dasharray:none;stroke-opacity:1"
       id="rect2254"
       width="300.04959"
       height="300.04456"
       x="-0.02803809"
       y="-0.021612983" />
  </g>
  <g
     inkscape:label="Camada 2"
     inkscape:groupmode="layer"
     id="g422"
     style="display:inline">
    <path
       d="M 105.83058,232.51713 V 127.70995 h 47.23815 c 10.3406,0 19.13493,1.59457 26.38299,4.78372 7.34473,3.18914 13.23985,7.39303 17.68534,12.61166 4.44547,5.21861 7.68294,11.01706 9.7124,17.39535 2.12611,6.28168 3.18916,12.56335 3.18916,18.84501 0,7.92457 -1.40129,15.02769 -4.20388,21.30936 -2.70596,6.28165 -6.47496,11.64523 -11.30701,16.09072 -4.83204,4.44551 -10.3889,7.87627 -16.67058,10.29228 -6.18501,2.31939 -12.7566,3.47908 -19.71476,3.47908 z m 14.06127,-13.48144 h 35.49626 c 5.79847,0 11.11373,-0.86977 15.94578,-2.6093 4.92869,-1.73954 9.1809,-4.25221 12.75661,-7.538 3.67236,-3.28579 6.52328,-7.29639 8.55275,-12.0318 2.02947,-4.83206 3.0442,-10.29228 3.0442,-16.38066 0,-6.47495 -1.06306,-12.12844 -3.18917,-16.96049 -2.1261,-4.9287 -5.02534,-9.03595 -8.69771,-12.32174 -3.67235,-3.28578 -7.82791,-5.75013 -12.46668,-7.39304 -4.63878,-1.73953 -9.51915,-2.6093 -14.64111,-2.6093 h -36.80093 z"
       id="path418"
       style="font-size:85.3333px;font-family:'Josefin Sans';-inkscape-font-specification:'Josefin Sans, Normal';display:inline;stroke:#ffffff;stroke-width:1.69877;stroke-opacity:1"
       sodipodi:nodetypes="ccscscscscsccscccscscscc" />
  </g>
  <g
     inkscape:label="Camada 3"
     inkscape:groupmode="layer"
     id="g430"
     style="display:inline">
    <path
       d="m 14.154538,128.17966 105.741052,0.0572 -13.51078,13.5109 -78.219961,-0.13557 v 33.36482 H 73.249358 L 59.723283,188.26514 H 28.164849 v 44.34192 H 14.154538 Z"
       id="path424"
       style="font-size:85.3333px;font-family:'Josefin Sans';-inkscape-font-specification:'Josefin Sans, Normal';display:inline;stroke:#ffffff;stroke-width:1.69262;stroke-opacity:1"
       sodipodi:nodetypes="ccccccccccc" />
  </g>
  <g
     inkscape:label="Camada 1"
     inkscape:groupmode="layer"
     id="layer1"
     style="display:inline">
    <path
       d="M 180.66594,168.92455 V 62.852372 h 0.14436 l 51.79548,74.022938 51.65094,-74.022938 h 0.28896 V 168.92455 h -13.86989 l 0.43343,-72.179644 -39.1536,56.903384 -38.93689,-56.626164 1.22811,71.902424 z"
       id="path410"
       style="font-size:85.3333px;font-family:'Josefin Sans';-inkscape-font-specification:'Josefin Sans, Normal';display:inline;stroke:#ffffff;stroke-width:1.65842;stroke-opacity:1"
       sodipodi:nodetypes="ccccccccccccc" />
  </g>
  <g
     inkscape:groupmode="layer"
     id="layer4"
     inkscape:label="Camada 5"
     style="display:none;fill:none;fill-opacity:1;stroke:#000000;stroke-opacity:1"
     transform="matrix(0.95880808,0,0,0.95880808,5.6373561,5.0920844)">
    <g
       id="g11501"
       transform="matrix(0,-0.50909092,0.50909092,0,86.363639,113.5446)">
      <rect
         style="fill:none;fill-opacity:1;stroke:#000000;stroke-width:0.919708;stroke-miterlimit:1;stroke-dasharray:none;stroke-opacity:1"
         id="rect9753"
         width="9.0802927"
         height="9.0802927"
         x="0.45985362"
         y="0.45985442"
         transform="matrix(0,1,1,0,0,0)" />
      <rect
         style="fill:none;fill-opacity:1;stroke:#000000;stroke-width:0.964038;stroke-miterlimit:1;stroke-dasharray:none;stroke-opacity:1"
         id="rect9753-0"
         width="19.035961"
         height="19.035961"
         x="-19.517981"
         y="0.48201901"
         transform="matrix(0,1,1,0,0,0)" />
      <rect
         style="fill:none;fill-opacity:1;stroke:#000000;stroke-width:0.979782;stroke-miterlimit:1;stroke-dasharray:none;stroke-opacity:1"
         id="rect9753-0-8"
         width="29.020218"
         height="29.020218"
         x="-19.510109"
         y="-29.510109"
         transform="matrix(0,1,1,0,0,0)" />
      <rect
         style="fill:none;fill-opacity:1;stroke:#000000;stroke-width:0.99275;stroke-miterlimit:1;stroke-dasharray:none;stroke-opacity:1"
         id="rect9753-0-8-9"
         width="49.007252"
         height="49.007252"
         x="10.496375"
         y="-29.503626"
         transform="matrix(0,1,1,0,0,0)" />
      <rect
         style="fill:none;fill-opacity:1;stroke:#000000;stroke-width:1.0002;stroke-miterlimit:1;stroke-dasharray:none;stroke-opacity:1"
         id="rect9753-0-8-9-3"
         width="78.999802"
         height="78.999802"
         x="-19.499901"
         y="20.500099"
         transform="matrix(0,1,1,0,0,0)" />
      <rect
         style="fill:none;fill-opacity:1;stroke:#000000;stroke-width:1.00004;stroke-miterlimit:1;stroke-dasharray:none;stroke-opacity:1"
         id="rect9753-0-8-9-3-1"
         width="128.99995"
         height="128.99995"
         x="-149.49998"
         y="-29.499981"
         transform="matrix(0,1,1,0,0,0)" />
      <rect
         style="fill:none;fill-opacity:1;stroke:#000000;stroke-width:1.00298;stroke-miterlimit:1;stroke-dasharray:none;stroke-opacity:1"
         id="rect9753-0-8-9-3-1-4"
         width="208.99702"
         height="208.99702"
         x="-149.4985"
         y="-239.4985"
         transform="matrix(0,1,1,0,0,0)" />
      <rect
         style="fill:none;fill-opacity:1;stroke:#000000;stroke-width:1.00481;stroke-miterlimit:1;stroke-dasharray:none;stroke-opacity:1"
         id="rect9753-0-8-9-3-1-4-8"
         width="338.99518"
         height="338.99518"
         x="60.502403"
         y="-239.49759"
         transform="matrix(0,1,1,0,0,0)" />
      <rect
         style="fill:none;fill-opacity:1;stroke:#000000;stroke-width:0.919708;stroke-miterlimit:1;stroke-dasharray:none;stroke-opacity:1"
         id="rect9753-9"
         width="9.0802927"
         height="9.0802927"
         x="0.45985401"
         y="10.459854"
         transform="matrix(0,1,1,0,0,0)" />
    </g>
  </g>
</svg>
